# Blender v2.79 (sub 0) OBJ File: ''
# www.blender.org
mtllib battery.mtl
o mesh1182958969
v -0.438557 -0.988607 0.263750
v -0.438557 0.435887 0.263750
v -0.507955 0.435887 0.004751
v -0.507956 -0.988607 0.004751
v -0.248956 -0.988607 0.453351
v -0.248957 0.435887 0.453351
v 0.010042 -0.988607 0.522749
v 0.010042 0.435887 0.522749
v 0.269041 -0.988607 0.453351
v 0.269041 0.435887 0.453351
v 0.458642 -0.988607 0.263751
v 0.458642 0.435887 0.263751
v 0.528041 -0.988607 0.004752
v 0.528041 0.435887 0.004752
v 0.458642 -0.988607 -0.254248
v 0.458642 0.435887 -0.254247
v 0.269041 -0.988607 -0.443848
v 0.269042 0.435887 -0.443848
v 0.010043 -0.988607 -0.513247
v 0.010043 0.435887 -0.513246
v -0.248956 -0.988607 -0.443848
v -0.248956 0.435887 -0.443848
v -0.438557 -0.988607 -0.254248
v -0.438557 0.435887 -0.254248
v -0.437849 0.435887 0.261108
v -0.437849 1.089990 0.261108
v -0.507956 1.089991 -0.000534
v -0.507956 0.435887 -0.000534
v -0.246314 0.435887 0.452643
v -0.246314 1.089990 0.452643
v 0.015327 0.435887 0.522749
v 0.015327 1.089990 0.522749
v 0.276969 0.435887 0.452643
v 0.276969 1.089990 0.452643
v 0.468504 0.435887 0.261108
v 0.468504 1.089990 0.261108
v 0.538611 0.435887 -0.000534
v 0.538611 1.089991 -0.000533
v 0.468504 0.435887 -0.262175
v 0.468504 1.089991 -0.262175
v 0.276969 0.435887 -0.453710
v 0.276969 1.089991 -0.453710
v 0.015327 0.435887 -0.523817
v 0.015328 1.089991 -0.523817
v -0.246314 0.435887 -0.453710
v -0.246314 1.089991 -0.453711
v -0.437849 0.435887 -0.262175
v -0.437849 1.089991 -0.262175
v -0.184137 0.741135 0.137555
v -0.184137 1.235347 0.137555
v -0.217243 1.235347 0.014002
v -0.217243 0.741135 0.014002
v -0.093690 0.741135 0.228001
v -0.093690 1.235347 0.228002
v 0.029863 0.741135 0.261108
v 0.029863 1.235347 0.261108
v 0.153416 0.741135 0.228002
v 0.153416 1.235347 0.228002
v 0.243863 0.741135 0.137555
v 0.243863 1.235347 0.137555
v 0.276969 0.741135 0.014002
v 0.276969 1.235347 0.014002
v 0.243863 0.741135 -0.109551
v 0.243863 1.235347 -0.109551
v 0.153416 0.741135 -0.199998
v 0.153416 1.235347 -0.199998
v 0.029863 0.741135 -0.233105
v 0.029863 1.235347 -0.233104
v -0.093690 0.741135 -0.199998
v -0.093690 1.235347 -0.199998
v -0.184137 0.741135 -0.109552
v -0.184137 1.235347 -0.109551
v -0.315304 -1.017678 0.210232
v -0.315304 -0.886857 0.210232
v -0.367884 -0.886857 0.014001
v -0.367884 -1.017678 0.014001
v -0.171653 -1.017678 0.353883
v -0.171653 -0.886857 0.353883
v 0.024578 -1.017678 0.406463
v 0.024578 -0.886857 0.406464
v 0.220810 -1.017678 0.353884
v 0.220809 -0.886857 0.353884
v 0.364461 -1.017678 0.210232
v 0.364461 -0.886857 0.210233
v 0.417041 -1.017678 0.014001
v 0.417041 -0.886857 0.014001
v 0.364461 -1.017678 -0.182230
v 0.364461 -0.886857 -0.182230
v 0.220810 -1.017678 -0.325881
v 0.220810 -0.886857 -0.325881
v 0.024579 -1.017678 -0.378461
v 0.024579 -0.886857 -0.378461
v -0.171652 -1.017678 -0.325882
v -0.171652 -0.886857 -0.325881
v -0.315304 -1.017678 -0.182230
v -0.315304 -0.886857 -0.182230
vt 0.433777 0.548459
vt 0.429617 0.572603
vt 0.434161 0.573386
vt 0.438322 0.549242
vt 0.501097 0.578741
vt 0.517578 0.596869
vt 0.520990 0.593767
vt 0.504509 0.575639
vt 0.534352 0.558752
vt 0.555615 0.570923
vt 0.557906 0.566920
vt 0.536643 0.554749
vt 0.550263 0.531729
vt 0.572415 0.542194
vt 0.574386 0.538024
vt 0.552233 0.527559
vt 0.561936 0.508812
vt 0.583664 0.520133
vt 0.585795 0.516043
vt 0.564067 0.504723
vt 0.572633 0.504794
vt 0.591503 0.520420
vt 0.594445 0.516868
vt 0.575575 0.501242
vt 0.561678 0.549242
vt 0.565839 0.573386
vt 0.570383 0.572603
vt 0.566223 0.548459
vt 0.495491 0.575639
vt 0.479010 0.593767
vt 0.482422 0.596869
vt 0.498903 0.578741
vt 0.463357 0.554749
vt 0.442094 0.566920
vt 0.444385 0.570923
vt 0.465648 0.558752
vt 0.447767 0.527559
vt 0.425615 0.538024
vt 0.427584 0.542194
vt 0.449737 0.531729
vt 0.435933 0.504723
vt 0.414205 0.516043
vt 0.416336 0.520133
vt 0.438064 0.508812
vt 0.424425 0.501242
vt 0.405555 0.516868
vt 0.408497 0.520420
vt 0.427367 0.504794
vt 0.453819 0.498856
vt 0.451845 0.494688
vt 0.448051 0.492065
vt 0.453445 0.503452
vt 0.450823 0.507246
vt 0.446655 0.509220
vt 0.442058 0.508846
vt 0.438265 0.506223
vt 0.436291 0.502056
vt 0.436665 0.497459
vt 0.439287 0.493666
vt 0.443455 0.491691
vt 0.556545 0.491691
vt 0.551949 0.492065
vt 0.548155 0.494688
vt 0.560713 0.493666
vt 0.563335 0.497459
vt 0.563709 0.502056
vt 0.561735 0.506223
vt 0.557942 0.508846
vt 0.553345 0.509220
vt 0.549177 0.507246
vt 0.546555 0.503452
vt 0.546181 0.498856
vt 0.429675 0.577940
vt 0.428232 0.586317
vt 0.430400 0.586690
vt 0.431843 0.578314
vt 0.521740 0.600180
vt 0.527458 0.606470
vt 0.529086 0.604990
vt 0.523368 0.598700
vt 0.560586 0.572806
vt 0.567963 0.577029
vt 0.569056 0.575119
vt 0.561679 0.570897
vt 0.577555 0.543607
vt 0.585240 0.547238
vt 0.586180 0.545249
vt 0.578494 0.541618
vt 0.588818 0.521604
vt 0.596356 0.525531
vt 0.597373 0.523580
vt 0.589835 0.519652
vt 0.596358 0.522790
vt 0.602904 0.528211
vt 0.604307 0.526517
vt 0.597761 0.521095
vt 0.568157 0.578314
vt 0.569600 0.586690
vt 0.571768 0.586317
vt 0.570325 0.577940
vt 0.476632 0.598701
vt 0.470915 0.604990
vt 0.472542 0.606470
vt 0.478260 0.600180
vt 0.438321 0.570897
vt 0.430944 0.575119
vt 0.432037 0.577029
vt 0.439414 0.572806
vt 0.421506 0.541618
vt 0.413820 0.545249
vt 0.414760 0.547238
vt 0.422446 0.543607
vt 0.410165 0.519653
vt 0.402627 0.523580
vt 0.403644 0.525531
vt 0.411182 0.521604
vt 0.402239 0.521095
vt 0.395693 0.526517
vt 0.397096 0.528211
vt 0.403642 0.522790
vt 0.448971 0.499960
vt 0.448029 0.497972
vt 0.446220 0.496721
vt 0.448793 0.502153
vt 0.447542 0.503962
vt 0.445554 0.504904
vt 0.443361 0.504726
vt 0.441551 0.503475
vt 0.440610 0.501486
vt 0.440788 0.499294
vt 0.442039 0.497484
vt 0.444027 0.496541
vt 0.555973 0.496542
vt 0.553780 0.496721
vt 0.551970 0.497972
vt 0.557961 0.497484
vt 0.559212 0.499294
vt 0.559390 0.501486
vt 0.558449 0.503475
vt 0.556639 0.504726
vt 0.554447 0.504904
vt 0.552458 0.503962
vt 0.551207 0.502153
vt 0.551029 0.499960
vt 0.434197 0.548023
vt 0.433815 0.550241
vt 0.437258 0.550834
vt 0.437640 0.548617
vt 0.500960 0.578190
vt 0.502473 0.579854
vt 0.505059 0.577504
vt 0.503545 0.575839
vt 0.534055 0.558263
vt 0.536008 0.559381
vt 0.537744 0.556349
vt 0.535791 0.555231
vt 0.549964 0.531191
vt 0.551999 0.532152
vt 0.553491 0.528993
vt 0.551457 0.528032
vt 0.561722 0.508143
vt 0.563717 0.509183
vt 0.565332 0.506084
vt 0.563336 0.505044
vt 0.572661 0.503976
vt 0.574394 0.505411
vt 0.576623 0.502720
vt 0.574890 0.501285
vt 0.562360 0.548617
vt 0.562742 0.550834
vt 0.566185 0.550241
vt 0.565803 0.548024
vt 0.496455 0.575839
vt 0.494941 0.577504
vt 0.497526 0.579854
vt 0.499040 0.578190
vt 0.464209 0.555231
vt 0.462256 0.556349
vt 0.463992 0.559381
vt 0.465945 0.558263
vt 0.448543 0.528032
vt 0.446509 0.528993
vt 0.448001 0.532152
vt 0.450036 0.531191
vt 0.436664 0.505044
vt 0.434669 0.506084
vt 0.436283 0.509183
vt 0.438278 0.508143
vt 0.425110 0.501286
vt 0.423377 0.502721
vt 0.425606 0.505412
vt 0.427339 0.503977
vt 0.451461 0.499425
vt 0.449966 0.496267
vt 0.447091 0.494281
vt 0.451178 0.502908
vt 0.449191 0.505782
vt 0.446033 0.507278
vt 0.442551 0.506994
vt 0.439676 0.505008
vt 0.438181 0.501850
vt 0.438464 0.498367
vt 0.440451 0.495493
vt 0.443609 0.493997
vt 0.556391 0.493997
vt 0.552909 0.494281
vt 0.550035 0.496268
vt 0.559549 0.495493
vt 0.561536 0.498367
vt 0.561819 0.501850
vt 0.560323 0.505008
vt 0.557449 0.506994
vt 0.553967 0.507278
vt 0.550809 0.505782
vt 0.548822 0.502908
vt 0.548539 0.499425
vt 0.429657 0.572610
vt 0.427746 0.583696
vt 0.432337 0.584487
vt 0.434248 0.573401
vt 0.517560 0.596885
vt 0.525128 0.605209
vt 0.528575 0.602075
vt 0.521007 0.593751
vt 0.555571 0.570999
vt 0.565335 0.576588
vt 0.567649 0.572545
vt 0.557886 0.566956
vt 0.572358 0.542316
vt 0.582530 0.547122
vt 0.584520 0.542909
vt 0.574348 0.538104
vt 0.583594 0.520268
vt 0.593571 0.525466
vt 0.595724 0.521335
vt 0.585747 0.516137
vt 0.591417 0.520524
vt 0.600082 0.527700
vt 0.603053 0.524111
vt 0.594388 0.516936
vt 0.565752 0.573401
vt 0.567662 0.584487
vt 0.572254 0.583696
vt 0.570343 0.572610
vt 0.478993 0.593751
vt 0.471425 0.602075
vt 0.474872 0.605209
vt 0.482440 0.596885
vt 0.442114 0.566956
vt 0.432351 0.572545
vt 0.434665 0.576588
vt 0.444429 0.570999
vt 0.425652 0.538104
vt 0.415480 0.542909
vt 0.417470 0.547122
vt 0.427642 0.542316
vt 0.414253 0.516137
vt 0.404276 0.521335
vt 0.406429 0.525466
vt 0.416406 0.520268
vt 0.405611 0.516936
vt 0.396947 0.524111
vt 0.399918 0.527699
vt 0.408583 0.520524
vt 0.453964 0.498955
vt 0.451969 0.494745
vt 0.448137 0.492096
vt 0.453586 0.503599
vt 0.450936 0.507431
vt 0.446726 0.509426
vt 0.442083 0.509047
vt 0.438251 0.506398
vt 0.436256 0.502188
vt 0.436634 0.497545
vt 0.439283 0.493713
vt 0.443493 0.491718
vt 0.556507 0.491718
vt 0.551863 0.492096
vt 0.548031 0.494745
vt 0.560717 0.493712
vt 0.563366 0.497545
vt 0.563744 0.502188
vt 0.561749 0.506398
vt 0.557917 0.509047
vt 0.553274 0.509426
vt 0.549063 0.507431
vt 0.546414 0.503599
vt 0.546036 0.498955
vn -0.9659 0.0000 0.2588
vn -0.7071 -0.0000 0.7071
vn -0.2588 0.0000 0.9659
vn 0.2588 -0.0000 0.9659
vn 0.7071 -0.0000 0.7071
vn 0.9659 -0.0000 0.2588
vn 0.9659 -0.0000 -0.2588
vn 0.7071 0.0000 -0.7071
vn 0.2588 0.0000 -0.9659
vn -0.2588 0.0000 -0.9659
vn -0.7071 0.0000 -0.7071
vn -0.9659 0.0000 -0.2588
vn -0.0000 1.0000 0.0000
vn 0.0000 -1.0000 -0.0000
usemtl mat23
s 1
f 1/1/1 2/2/1 3/3/1
f 4/4/1 1/1/1 3/3/1
f 5/5/2 6/6/2 2/7/2
f 1/8/2 5/5/2 2/7/2
f 7/9/3 8/10/3 6/11/3
f 5/12/3 7/9/3 6/11/3
f 9/13/4 10/14/4 8/15/4
f 7/16/4 9/13/4 8/15/4
f 11/17/5 12/18/5 10/19/5
f 9/20/5 11/17/5 10/19/5
f 13/21/6 14/22/6 12/23/6
f 11/24/6 13/21/6 12/23/6
f 15/25/7 16/26/7 14/27/7
f 13/28/7 15/25/7 14/27/7
f 17/29/8 18/30/8 16/31/8
f 15/32/8 17/29/8 16/31/8
f 19/33/9 20/34/9 18/35/9
f 17/36/9 19/33/9 18/35/9
f 21/37/10 22/38/10 20/39/10
f 19/40/10 21/37/10 20/39/10
f 23/41/11 24/42/11 22/43/11
f 21/44/11 23/41/11 22/43/11
f 4/45/12 3/46/12 24/47/12
f 23/48/12 4/45/12 24/47/12
f 22/49/13 24/50/13 3/51/13
f 20/52/13 22/49/13 3/51/13
f 18/53/13 20/52/13 3/51/13
f 16/54/13 18/53/13 3/51/13
f 14/55/13 16/54/13 3/51/13
f 12/56/13 14/55/13 3/51/13
f 10/57/13 12/56/13 3/51/13
f 8/58/13 10/57/13 3/51/13
f 6/59/13 8/58/13 3/51/13
f 2/60/13 6/59/13 3/51/13
f 1/61/14 4/62/14 23/63/14
f 5/64/14 1/61/14 23/63/14
f 7/65/14 5/64/14 23/63/14
f 9/66/14 7/65/14 23/63/14
f 11/67/14 9/66/14 23/63/14
f 13/68/14 11/67/14 23/63/14
f 15/69/14 13/68/14 23/63/14
f 17/70/14 15/69/14 23/63/14
f 19/71/14 17/70/14 23/63/14
f 21/72/14 19/71/14 23/63/14
usemtl mat22
f 49/73/1 50/74/1 51/75/1
f 52/76/1 49/73/1 51/75/1
f 53/77/2 54/78/2 50/79/2
f 49/80/2 53/77/2 50/79/2
f 55/81/3 56/82/3 54/83/3
f 53/84/3 55/81/3 54/83/3
f 57/85/4 58/86/4 56/87/4
f 55/88/4 57/85/4 56/87/4
f 59/89/5 60/90/5 58/91/5
f 57/92/5 59/89/5 58/91/5
f 61/93/6 62/94/6 60/95/6
f 59/96/6 61/93/6 60/95/6
f 63/97/7 64/98/7 62/99/7
f 61/100/7 63/97/7 62/99/7
f 65/101/8 66/102/8 64/103/8
f 63/104/8 65/101/8 64/103/8
f 67/105/9 68/106/9 66/107/9
f 65/108/9 67/105/9 66/107/9
f 69/109/10 70/110/10 68/111/10
f 67/112/10 69/109/10 68/111/10
f 71/113/11 72/114/11 70/115/11
f 69/116/11 71/113/11 70/115/11
f 52/117/12 51/118/12 72/119/12
f 71/120/12 52/117/12 72/119/12
f 70/121/13 72/122/13 51/123/13
f 68/124/13 70/121/13 51/123/13
f 66/125/13 68/124/13 51/123/13
f 64/126/13 66/125/13 51/123/13
f 62/127/13 64/126/13 51/123/13
f 60/128/13 62/127/13 51/123/13
f 58/129/13 60/128/13 51/123/13
f 56/130/13 58/129/13 51/123/13
f 54/131/13 56/130/13 51/123/13
f 50/132/13 54/131/13 51/123/13
f 49/133/14 52/134/14 71/135/14
f 53/136/14 49/133/14 71/135/14
f 55/137/14 53/136/14 71/135/14
f 57/138/14 55/137/14 71/135/14
f 59/139/14 57/138/14 71/135/14
f 61/140/14 59/139/14 71/135/14
f 63/141/14 61/140/14 71/135/14
f 65/142/14 63/141/14 71/135/14
f 67/143/14 65/142/14 71/135/14
f 69/144/14 67/143/14 71/135/14
f 73/145/1 74/146/1 75/147/1
f 76/148/1 73/145/1 75/147/1
f 77/149/2 78/150/2 74/151/2
f 73/152/2 77/149/2 74/151/2
f 79/153/3 80/154/3 78/155/3
f 77/156/3 79/153/3 78/155/3
f 81/157/4 82/158/4 80/159/4
f 79/160/4 81/157/4 80/159/4
f 83/161/5 84/162/5 82/163/5
f 81/164/5 83/161/5 82/163/5
f 85/165/6 86/166/6 84/167/6
f 83/168/6 85/165/6 84/167/6
f 87/169/7 88/170/7 86/171/7
f 85/172/7 87/169/7 86/171/7
f 89/173/8 90/174/8 88/175/8
f 87/176/8 89/173/8 88/175/8
f 91/177/9 92/178/9 90/179/9
f 89/180/9 91/177/9 90/179/9
f 93/181/10 94/182/10 92/183/10
f 91/184/10 93/181/10 92/183/10
f 95/185/11 96/186/11 94/187/11
f 93/188/11 95/185/11 94/187/11
f 76/189/12 75/190/12 96/191/12
f 95/192/12 76/189/12 96/191/12
f 94/193/13 96/194/13 75/195/13
f 92/196/13 94/193/13 75/195/13
f 90/197/13 92/196/13 75/195/13
f 88/198/13 90/197/13 75/195/13
f 86/199/13 88/198/13 75/195/13
f 84/200/13 86/199/13 75/195/13
f 82/201/13 84/200/13 75/195/13
f 80/202/13 82/201/13 75/195/13
f 78/203/13 80/202/13 75/195/13
f 74/204/13 78/203/13 75/195/13
f 73/205/14 76/206/14 95/207/14
f 77/208/14 73/205/14 95/207/14
f 79/209/14 77/208/14 95/207/14
f 81/210/14 79/209/14 95/207/14
f 83/211/14 81/210/14 95/207/14
f 85/212/14 83/211/14 95/207/14
f 87/213/14 85/212/14 95/207/14
f 89/214/14 87/213/14 95/207/14
f 91/215/14 89/214/14 95/207/14
f 93/216/14 91/215/14 95/207/14
usemtl mat13
f 25/217/1 26/218/1 27/219/1
f 28/220/1 25/217/1 27/219/1
f 29/221/2 30/222/2 26/223/2
f 25/224/2 29/221/2 26/223/2
f 31/225/3 32/226/3 30/227/3
f 29/228/3 31/225/3 30/227/3
f 33/229/4 34/230/4 32/231/4
f 31/232/4 33/229/4 32/231/4
f 35/233/5 36/234/5 34/235/5
f 33/236/5 35/233/5 34/235/5
f 37/237/6 38/238/6 36/239/6
f 35/240/6 37/237/6 36/239/6
f 39/241/7 40/242/7 38/243/7
f 37/244/7 39/241/7 38/243/7
f 41/245/8 42/246/8 40/247/8
f 39/248/8 41/245/8 40/247/8
f 43/249/9 44/250/9 42/251/9
f 41/252/9 43/249/9 42/251/9
f 45/253/10 46/254/10 44/255/10
f 43/256/10 45/253/10 44/255/10
f 47/257/11 48/258/11 46/259/11
f 45/260/11 47/257/11 46/259/11
f 28/261/12 27/262/12 48/263/12
f 47/264/12 28/261/12 48/263/12
f 46/265/13 48/266/13 27/267/13
f 44/268/13 46/265/13 27/267/13
f 42/269/13 44/268/13 27/267/13
f 40/270/13 42/269/13 27/267/13
f 38/271/13 40/270/13 27/267/13
f 36/272/13 38/271/13 27/267/13
f 34/273/13 36/272/13 27/267/13
f 32/274/13 34/273/13 27/267/13
f 30/275/13 32/274/13 27/267/13
f 26/276/13 30/275/13 27/267/13
f 25/277/14 28/278/14 47/279/14
f 29/280/14 25/277/14 47/279/14
f 31/281/14 29/280/14 47/279/14
f 33/282/14 31/281/14 47/279/14
f 35/283/14 33/282/14 47/279/14
f 37/284/14 35/283/14 47/279/14
f 39/285/14 37/284/14 47/279/14
f 41/286/14 39/285/14 47/279/14
f 43/287/14 41/286/14 47/279/14
f 45/288/14 43/287/14 47/279/14
o mesh972917692
v 0.016973 -0.837760 0.475565
v 0.016372 -0.895845 0.473037
v 0.031813 -0.898442 0.529031
v 0.032413 -0.840358 0.531560
v 0.241179 -0.837387 0.413757
v 0.256620 -0.839985 0.469752
v 0.256019 -0.898069 0.467223
v 0.240578 -0.895471 0.411228
vt 0.428576 0.551094
vt 0.428775 0.550114
vt 0.427795 0.549914
vt 0.427596 0.550894
vt 0.571424 0.551094
vt 0.572404 0.550894
vt 0.572204 0.549914
vt 0.571225 0.550114
vt 0.560139 0.500894
vt 0.561135 0.500799
vt 0.560756 0.496817
vt 0.559761 0.496912
vt 0.439861 0.500894
vt 0.440239 0.496912
vt 0.439244 0.496817
vt 0.438866 0.500799
vt 0.555515 0.533154
vt 0.557206 0.529529
vt 0.556299 0.529106
vt 0.554609 0.532731
vt 0.444485 0.533154
vt 0.445391 0.532731
vt 0.443700 0.529106
vt 0.442794 0.529529
vn -0.9640 -0.0016 0.2658
vn 0.9640 0.0016 -0.2658
vn -0.0103 -0.9990 -0.0435
vn 0.0103 0.9990 0.0435
vn 0.2656 -0.0447 0.9631
vn -0.2656 0.0447 -0.9631
usemtl mat22
s 1
f 97/289/15 98/290/15 99/291/15
f 100/292/15 97/289/15 99/291/15
f 101/293/16 102/294/16 103/295/16
f 104/296/16 101/293/16 103/295/16
f 104/297/17 103/298/17 99/299/17
f 98/300/17 104/297/17 99/299/17
f 101/301/18 97/302/18 100/303/18
f 102/304/18 101/301/18 100/303/18
f 102/305/19 100/306/19 99/307/19
f 103/308/19 102/305/19 99/307/19
f 101/309/20 104/310/20 98/311/20
f 97/312/20 101/309/20 98/311/20
o mesh1735691143
v 0.030892 0.932454 0.487728
v 0.031266 0.874317 0.488443
v 0.048012 0.875109 0.544116
v 0.047639 0.933246 0.543401
v 0.253603 0.933060 0.420730
v 0.270349 0.933852 0.476403
v 0.270722 0.875715 0.477118
v 0.253976 0.874923 0.421445
v 0.169527 1.020039 0.444782
v 0.113849 1.019887 0.461531
v 0.130595 1.020680 0.517204
v 0.186273 1.020831 0.500455
v 0.171019 0.787491 0.447642
v 0.187766 0.788283 0.503315
v 0.132088 0.788132 0.520065
v 0.115342 0.787339 0.464392
vt 0.427534 0.584718
vt 0.427629 0.583722
vt 0.426633 0.583628
vt 0.426539 0.584624
vt 0.572466 0.584718
vt 0.573461 0.584624
vt 0.573367 0.583628
vt 0.572371 0.583722
vt 0.564335 0.502584
vt 0.565334 0.502540
vt 0.565157 0.498544
vt 0.564158 0.498589
vt 0.435664 0.502584
vt 0.435842 0.498588
vt 0.434843 0.498544
vt 0.434666 0.502540
vt 0.580238 0.543631
vt 0.581936 0.540009
vt 0.581030 0.539585
vt 0.579332 0.543206
vt 0.419762 0.543631
vt 0.420667 0.543206
vt 0.418969 0.539585
vt 0.418064 0.540009
vt 0.435731 0.501085
vt 0.435776 0.500086
vt 0.434777 0.500042
vt 0.434732 0.501041
vt 0.564269 0.501086
vt 0.565268 0.501041
vt 0.565223 0.500042
vt 0.564224 0.500087
vt 0.427770 0.582229
vt 0.426775 0.582135
vt 0.426398 0.586117
vt 0.427393 0.586211
vt 0.572230 0.582229
vt 0.572607 0.586211
vt 0.573602 0.586117
vt 0.573225 0.582135
vt 0.578611 0.541211
vt 0.582233 0.542910
vt 0.582657 0.542004
vt 0.579036 0.540306
vt 0.421389 0.541211
vt 0.420964 0.540306
vt 0.417343 0.542004
vt 0.417767 0.542910
vn -0.9576 -0.0026 0.2881
vn 0.9576 0.0026 -0.2881
vn 0.0064 -0.9999 0.0123
vn -0.0064 0.9999 -0.0123
vn 0.2880 0.0136 0.9575
vn -0.2880 -0.0136 -0.9575
usemtl mat22
s 1
f 105/313/21 106/314/21 107/315/21
f 108/316/21 105/313/21 107/315/21
f 109/317/22 110/318/22 111/319/22
f 112/320/22 109/317/22 111/319/22
f 112/321/23 111/322/23 107/323/23
f 106/324/23 112/321/23 107/323/23
f 109/325/24 105/326/24 108/327/24
f 110/328/24 109/325/24 108/327/24
f 110/329/25 108/330/25 107/331/25
f 111/332/25 110/329/25 107/331/25
f 109/333/26 112/334/26 106/335/26
f 105/336/26 109/333/26 106/335/26
f 113/337/24 114/338/24 115/339/24
f 116/340/24 113/337/24 115/339/24
f 117/341/23 118/342/23 119/343/23
f 120/344/23 117/341/23 119/343/23
f 120/345/21 119/346/21 115/347/21
f 114/348/21 120/345/21 115/347/21
f 117/349/22 113/350/22 116/351/22
f 118/352/22 117/349/22 116/351/22
f 118/353/25 116/354/25 115/355/25
f 119/356/25 118/353/25 115/355/25
f 117/357/26 120/358/26 114/359/26
f 113/360/26 117/357/26 114/359/26
