# Blender v2.79 (sub 0) OBJ File: ''
# www.blender.org
mtllib health.mtl
o Cube
v -0.300000 -0.300000 -0.300000
v 0.300000 -0.300000 -0.300000
v 0.300000 -0.300000 0.300000
v -0.300000 -0.300000 0.300000
v -0.300000 0.300000 -0.300000
v 0.300000 0.300000 -0.300000
v 0.300000 0.300000 0.300000
v -0.300000 0.300000 0.300000
v -0.300000 0.900000 -0.300000
v 0.300000 0.900000 -0.300000
v -0.300000 0.900000 0.300000
v 0.300000 0.900000 0.300000
v -0.900000 -0.300000 -0.300000
v -0.900000 -0.300000 0.300000
v -0.900000 0.300000 -0.300000
v -0.900000 0.300000 0.300000
v -0.300000 -0.900000 -0.300000
v 0.300000 -0.900000 -0.300000
v -0.300000 -0.900000 0.300000
v 0.300000 -0.900000 0.300000
v 0.900000 -0.300000 -0.300000
v 0.900000 -0.300000 0.300000
v 0.900000 0.300000 -0.300000
v 0.900000 0.300000 0.300000
vn 0.0000 0.0000 -1.0000
vn -0.0000 0.0000 1.0000
vn 0.0000 1.0000 -0.0000
vn -1.0000 0.0000 -0.0000
vn 1.0000 0.0000 0.0000
vn -0.0000 -1.0000 -0.0000
usemtl Material
s off
f 1//1 2//1 18//1 17//1
f 8//2 7//2 12//2 11//2
f 1//1 5//1 6//1 2//1
f 2//1 6//1 23//1 21//1
f 3//2 7//2 8//2 4//2
f 5//1 1//1 13//1 15//1
f 9//3 11//3 12//3 10//3
f 5//4 8//4 11//4 9//4
f 7//5 6//5 10//5 12//5
f 6//1 5//1 9//1 10//1
f 15//4 13//4 14//4 16//4
f 8//3 5//3 15//3 16//3
f 4//2 8//2 16//2 14//2
f 1//6 4//6 14//6 13//6
f 17//6 18//6 20//6 19//6
f 3//2 4//2 19//2 20//2
f 2//5 3//5 20//5 18//5
f 4//4 1//4 17//4 19//4
f 21//5 23//5 24//5 22//5
f 3//6 2//6 21//6 22//6
f 6//3 7//3 24//3 23//3
f 7//2 3//2 22//2 24//2
