# Blender v2.79 (sub 0) OBJ File: ''
# www.blender.org
mtllib tableCoffeeSquare.mtl
o tableCoffeeSquare
v -0.916919 0.294286 -0.739166
v -0.732919 0.294286 -0.739166
v -0.732919 0.800286 -0.739166
v -0.916919 0.800286 -0.739166
v 0.739081 0.294286 -0.739166
v -0.732919 0.202286 -0.739166
v 0.739081 0.202286 -0.739166
v -0.916919 -0.027714 -0.739166
v -0.732919 -0.027714 -0.739166
v -0.916919 0.202286 -0.739166
v 0.923081 0.202286 -0.739166
v 0.739081 -0.027714 -0.739166
v 0.923081 -0.027714 -0.739166
v 0.923081 0.294286 -0.739166
v 0.923081 0.800286 -0.739166
v 0.739081 0.800286 -0.739166
v -0.732919 0.202286 0.732834
v -0.916919 0.202286 0.732834
v -0.732919 0.202286 0.916834
v 0.739081 0.202286 0.732834
v 0.739081 0.202286 0.916834
v 0.739081 0.202286 -0.923166
v -0.732919 0.202286 -0.923166
v 0.923081 0.202286 0.732834
v 0.923081 -0.027714 0.732834
v 0.739081 -0.027714 0.732834
v -0.732919 0.294286 0.732834
v 0.739081 0.294286 0.732834
v 0.923081 0.294286 0.732834
v 0.739081 0.800286 0.732834
v 0.923081 0.800286 0.732834
v -0.732919 -0.027714 0.732834
v -0.916919 -0.027714 0.732834
v -0.916919 0.294286 0.732834
v -0.916919 0.800286 0.732834
v -0.732919 0.800286 0.732834
v -0.732919 -0.027714 -0.923166
v -0.916919 -0.027714 -0.923166
v 0.923081 1.030286 0.916834
v 0.923081 1.030286 -0.923166
v -0.916919 1.030286 -0.923166
v -0.916919 1.030286 0.916834
v -0.916919 -0.027714 0.916834
v 0.923081 -0.027714 -0.923166
v 0.923081 -0.027714 0.916834
v -0.732919 0.294286 -0.923166
v -0.732919 0.800286 -0.923166
v 0.739081 0.800286 -0.923166
v 0.739081 0.294286 -0.923166
v 0.739081 -0.027714 -0.923166
v 0.739081 -0.027714 0.916834
v 0.739081 0.294286 0.916834
v 0.739081 0.800286 0.916834
v -0.732919 0.800286 0.916834
v -0.732919 0.294286 0.916834
v -0.732919 -0.027714 0.916834
vt 2.401421 2.755906
vt 3.976224 2.755906
vt 3.976224 7.086614
vt 2.401421 7.086614
vt 16.574650 2.755906
vt 3.976224 1.968504
vt 16.574650 1.968504
vt 2.401421 0.000000
vt 3.976224 0.000000
vt 2.401421 1.968504
vt 16.574650 0.000000
vt 18.149450 0.000000
vt 18.149450 1.968504
vt 2.401421 10.236220
vt 2.401421 -2.362205
vt 3.976224 -2.362205
vt -16.574650 1.968504
vt -18.149450 1.968504
vt -18.149450 0.000000
vt -3.976224 1.968504
vt -3.976224 2.755906
vt -16.574650 7.086614
vt -18.149450 7.086614
vt -18.149450 2.755906
vt -2.401421 7.086614
vt -3.976224 7.086614
vt -18.149450 11.811020
vt -18.149450 -3.937008
vt -2.401421 -3.937008
vt -2.401421 11.811020
vt 10.236220 1.968504
vt 10.236220 -0.000000
vt 11.811020 0.000000
vt 10.236220 2.755906
vt 10.236220 7.086614
vt 11.811020 9.055119
vt -2.362205 7.086614
vt -3.937008 9.055119
vt -3.937008 0.000000
vt -2.362205 0.000000
vt -2.362205 2.755906
vt -2.362205 1.968504
vt 3.937008 9.055119
vt -11.811020 9.055119
vt 2.362205 7.086614
vt -10.236220 1.968504
vt -10.236220 2.755906
vt -10.236220 -0.000000
vt -11.811020 -0.000000
vt 2.362205 0.000000
vt 3.937008 -0.000000
vt 2.362205 2.755906
vt 2.362205 1.968504
vt -3.976224 2.755906
vt -16.574650 1.968504
vt -3.976224 1.968504
vt -2.401421 9.055119
vt -3.976224 7.086614
vt -16.574650 2.755906
vt 16.574650 -2.362205
vt 16.574650 -3.937008
vt 18.149450 -3.937008
vt 10.236220 1.968504
vt 10.236220 2.755906
vt -2.362205 2.755906
vt 10.236220 -0.000000
vt 11.811020 -0.000000
vt 10.236220 7.086614
vt 11.811020 2.755906
vt 11.811020 7.086614
vt -3.937008 7.086614
vt -3.937008 2.755906
vt -2.362205 -0.000000
vt -2.362205 1.968504
vt -3.937008 1.968504
vt 2.362205 1.968504
vt 2.362205 2.755906
vt -10.236220 2.755906
vt 3.937008 2.755906
vt 3.937008 7.086614
vt 2.362205 7.086614
vt 3.937008 0.000000
vt 3.937008 1.968504
vt -10.236220 7.086614
vt -11.811020 7.086614
vt -11.811020 2.755906
vt 3.976224 10.236220
vt 3.976224 11.811020
vt 2.401421 11.811020
vt 2.401421 10.236220
vt -3.976224 10.236220
vt -3.976224 -2.362205
vt -2.401421 -2.362205
vt -2.401421 10.236220
vt -16.574650 11.811020
vt -16.574650 10.236220
vt -16.574650 -2.362205
vt -18.149450 10.236220
vt 16.574650 -0.000000
vt 18.149450 -0.000000
vt 18.149450 9.055119
vt 16.574650 7.086614
vt 16.574650 2.755906
vt 3.976224 1.968504
vt 3.976224 2.755906
vt 2.401421 9.055119
vt 3.976224 7.086614
vt 2.401421 -0.000000
vt 3.976224 -0.000000
vt 3.976224 -2.362205
vt 3.976224 10.236220
vt 2.401421 10.236220
vt 3.976224 -3.937008
vt 3.976224 11.811020
vt 16.574650 -3.937008
vt 16.574650 -2.362205
vt 16.574650 10.236220
vt 18.149450 2.755906
vt 18.149450 7.086614
vt 16.574650 7.086614
vt 3.976224 10.236220
vt 3.976224 11.811020
vt 16.574650 10.236220
vt 16.574650 11.811020
vt 16.574650 -3.937008
vt 16.574650 -2.362205
vt 3.976224 -3.937008
vt 18.149450 -2.362205
vt 18.149450 10.236220
vt -16.574650 0.000000
vt -16.574650 2.755906
vt -2.401421 1.968504
vt -3.976224 -0.000000
vt -2.401421 -0.000000
vt -2.401421 2.755906
vt 3.976224 -3.937008
vt 3.976224 -2.362205
vt 2.401421 -2.362205
vt 2.401421 -3.937008
vt -10.236220 7.086614
vt -3.976224 -0.000000
vt -2.401421 -0.000000
vt -16.574650 7.086614
vt -18.149450 9.055119
vt -18.149450 -0.000000
vt -16.574650 -0.000000
vt 18.149450 10.236220
vt 18.149450 11.811020
vt 16.574650 11.811020
vt 16.574650 10.236220
vt 18.149450 -2.362205
vt 11.811020 1.968504
vt -2.362205 7.086614
vt -3.937008 -0.000000
vt -10.236220 1.968504
vt 2.362205 0.000000
vt -10.236220 -0.000000
vt -11.811020 1.968504
vt -11.811020 0.000000
vt -3.976224 11.811020
vt -3.976224 -3.937008
vt -16.574650 -3.937008
vt -18.149450 -2.362205
vt 16.574650 1.968504
vt 2.401421 -2.362205
vt 16.574650 11.811020
vt 18.149450 -2.362205
vt 18.149450 10.236220
vn 0.0000 -0.0000 1.0000
vn 0.0000 -1.0000 -0.0000
vn 0.0000 0.0000 -1.0000
vn 0.0000 1.0000 0.0000
vn -1.0000 -0.0000 0.0000
vn -1.0000 -0.0000 0.0002
vn 0.2249 0.8438 0.4872
vn -1.0000 -0.0000 -0.0001
vn 1.0000 0.0000 0.0000
vn 1.0000 0.0000 0.0002
vn -0.2249 0.8437 0.4873
vn 1.0000 -0.0000 -0.0001
vn -0.5169 -0.8561 0.0000
vn 0.4000 -0.2000 -0.8944
usemtl wood.001
s 1
f 1/1/1 2/2/1 3/3/1
f 3/3/1 4/4/1 1/1/1
f 5/5/1 2/2/1 6/6/1
f 6/6/1 7/7/1 5/5/1
f 8/8/1 9/9/1 6/6/1
f 6/6/1 10/10/1 8/8/1
f 12/11/1 13/12/1 11/13/1
f 18/14/2 10/15/2 6/16/2
f 20/17/3 24/18/3 25/19/3
f 20/17/3 17/20/3 27/21/3
f 30/22/3 31/23/3 29/24/3
f 35/25/3 36/26/3 27/21/3
f 39/27/4 40/28/4 41/29/4
f 41/29/4 42/30/4 39/27/4
f 18/31/5 33/32/5 43/33/5
f 43/33/5 34/34/5 18/31/5
f 35/35/5 43/33/5 42/36/5
f 4/37/5 35/35/5 42/36/5
f 41/38/5 38/39/5 8/40/6
f 8/40/6 1/41/7 4/37/5
f 1/41/7 8/40/6 10/42/8
f 10/42/8 34/34/5 1/41/7
f 10/42/8 18/31/5 34/34/5
f 40/43/9 39/44/9 15/45/9
f 39/44/9 24/46/9 29/47/9
f 39/44/9 25/48/9 24/46/9
f 39/44/9 45/49/9 25/48/9
f 13/50/10 44/51/9 15/45/9
f 14/52/11 11/53/12 13/50/10
f 46/54/3 22/55/3 23/56/3
f 41/57/3 47/58/3 46/54/3
f 22/55/3 46/54/3 49/59/3
f 12/60/2 50/61/2 44/62/2
f 20/63/5 28/64/5 5/65/5
f 20/63/5 26/66/5 51/67/5
f 30/68/5 28/64/5 52/69/5
f 52/69/5 53/70/5 30/68/5
f 48/71/5 49/72/5 5/65/5
f 12/73/5 7/74/5 22/75/5
f 6/76/9 2/77/9 27/78/9
f 46/79/9 47/80/9 3/81/9
f 37/82/9 23/83/9 6/76/9
f 27/78/9 36/84/9 54/85/9
f 54/85/9 55/86/9 27/78/9
f 32/87/2 56/88/2 43/89/2
f 43/89/2 33/90/2 32/87/2
f 27/91/4 2/92/4 1/93/4
f 1/93/4 34/94/4 27/91/4
f 52/95/4 28/96/4 27/91/4
f 5/97/4 28/96/4 29/98/4
f 51/99/1 45/100/1 39/101/1
f 39/101/1 53/102/1 52/103/1
f 19/104/1 55/105/1 42/106/1
f 54/107/1 39/101/1 42/106/1
f 43/108/1 56/109/1 19/104/1
f 3/110/13 36/111/14 35/112/2
f 36/111/14 3/110/13 47/113/2
f 54/114/2 47/113/2 48/115/2
f 54/114/2 16/116/2 30/117/2
f 11/13/1 7/7/1 12/11/1
f 5/5/1 14/118/1 15/119/1
f 15/119/1 16/120/1 5/5/1
f 6/16/2 17/121/2 18/14/2
f 19/122/2 17/121/2 20/123/2
f 20/123/2 21/124/2 19/122/2
f 22/125/2 7/126/2 6/16/2
f 6/16/2 23/127/2 22/125/2
f 20/123/2 7/126/2 11/128/2
f 11/128/2 24/129/2 20/123/2
f 25/19/3 26/130/3 20/17/3
f 27/21/3 28/131/3 20/17/3
f 29/24/3 28/131/3 30/22/3
f 18/132/3 17/20/3 32/133/3
f 32/133/3 33/134/3 18/132/3
f 27/21/3 34/135/3 35/25/3
f 37/136/2 9/137/2 8/138/2
f 8/138/2 38/139/2 37/136/2
f 43/33/5 35/35/5 34/34/5
f 4/37/5 42/36/5 41/38/5
f 8/40/6 4/37/5 41/38/5
f 15/45/9 44/51/9 40/43/9
f 39/44/9 31/140/9 15/45/9
f 39/44/9 29/47/9 31/140/9
f 29/47/9 24/46/9 11/53/12
f 11/53/12 14/52/11 29/47/9
f 15/45/9 14/52/11 13/50/10
f 37/141/3 38/142/3 41/57/3
f 41/57/3 23/56/3 37/141/3
f 41/57/3 46/54/3 23/56/3
f 41/57/3 48/143/3 47/58/3
f 22/55/3 49/59/3 40/144/3
f 49/59/3 48/143/3 40/144/3
f 48/143/3 41/57/3 40/144/3
f 22/55/3 40/144/3 44/145/3
f 44/145/3 50/146/3 22/55/3
f 25/147/2 45/148/2 51/149/2
f 51/149/2 26/150/2 25/147/2
f 44/62/2 13/151/2 12/60/2
f 5/65/5 7/74/5 20/63/5
f 51/67/5 21/152/5 20/63/5
f 5/65/5 16/153/5 48/71/5
f 22/75/5 50/154/5 12/73/5
f 27/78/9 17/155/9 6/76/9
f 3/81/9 2/77/9 46/79/9
f 6/76/9 9/156/9 37/82/9
f 32/157/9 17/155/9 19/158/9
f 19/158/9 56/159/9 32/157/9
f 27/91/4 55/160/4 52/95/4
f 46/161/4 2/92/4 5/97/4
f 5/97/4 49/162/4 46/161/4
f 29/98/4 14/163/4 5/97/4
f 39/101/1 21/164/1 51/99/1
f 39/101/1 52/103/1 21/164/1
f 52/103/1 19/104/1 21/164/1
f 39/101/1 54/107/1 53/102/1
f 19/104/1 52/103/1 55/105/1
f 55/105/1 54/107/1 42/106/1
f 19/104/1 42/106/1 43/108/1
f 35/112/2 4/165/2 3/110/13
f 54/114/2 36/111/14 47/113/2
f 54/114/2 48/115/2 16/116/2
f 30/117/2 53/166/2 54/114/2
f 30/117/2 16/116/2 15/167/2
f 15/167/2 31/168/2 30/117/2
